<svg xmlns="http://www.w3.org/2000/svg" width="23" height="24" viewBox="0 0 23 24">
    <g>
        <path fill="#e91d46" d="M0 19a8.445 8.445 0 0 1 8.445-8.445h1.11A8.445 8.445 0 0 1 18 19zM4.235 4.75A4.765 4.765 0 1 1 9 9.5a4.757 4.757 0 0 1-4.765-4.75z" transform="translate(0 -1.822) translate(0 1.822)"/>
        <g>
            <g fill="#e91d46">
                <path d="M5.4 10.3C2.698 10.3.5 8.102.5 5.4.5 2.698 2.698.5 5.4.5c2.702 0 4.9 2.198 4.9 4.9 0 2.702-2.198 4.9-4.9 4.9z" transform="translate(0 -1.822) translate(12.2 15.022)"/>
                <path fill="#fff" d="M5.4 1C2.974 1 1 2.974 1 5.4s1.974 4.4 4.4 4.4 4.4-1.974 4.4-4.4S7.826 1 5.4 1m0-1c2.982 0 5.4 2.418 5.4 5.4s-2.418 5.4-5.4 5.4S0 8.382 0 5.4 2.418 0 5.4 0z" transform="translate(0 -1.822) translate(12.2 15.022)"/>
            </g>
            <g/>
        </g>
    </g>
</svg>
