<svg xmlns="http://www.w3.org/2000/svg" id="Logo_2" width="52.771" height="42.876" viewBox="0 0 52.771 42.876">
    <defs>
        <style>
            .cls-1{fill:#04a777}
        </style>
    </defs>
    <g id="_3" transform="translate(5.289)">
        <g id="Search" transform="translate(15.73 13.723)">
            <g id="Group_608">
                <path id="Path_1590" d="M502.506 326.125a5.394 5.394 0 1 1 5.394-5.394 5.394 5.394 0 0 1-5.394 5.394zm0-8.826a3.432 3.432 0 1 0 3.432 3.432 3.432 3.432 0 0 0-3.432-3.432z" class="cls-1" transform="translate(-497.112 -315.337)"/>
            </g>
            <g id="Group_609" transform="translate(8.068 6.887)">
                <path id="Path_1591" d="M540.86 352.824a.978.978 0 0 1-.549-.168l-5.56-3.764a.98.98 0 1 1 1.1-1.623l5.56 3.763a.98.98 0 0 1-.551 1.793z" class="cls-1" transform="translate(-534.321 -347.1)"/>
            </g>
        </g>
        <g id="Home">
            <g id="Group_610">
                <path id="Path_1592" d="M465.289 268.223a1.465 1.465 0 0 1-.821-.252l-18.791-12.678-18.791 12.678a1.471 1.471 0 0 1-1.693-2.407l.047-.032 19.613-13.232a1.471 1.471 0 0 1 1.645 0l19.614 13.233a1.471 1.471 0 0 1-.825 2.691z" class="cls-1" transform="translate(-424.567 -252.047)"/>
            </g>
            <g id="Group_611" transform="translate(9.712 2.76)">
                <path id="Path_1593" d="M470.826 271.573a1.471 1.471 0 0 1-1.471-1.471v-3.856a1.471 1.471 0 1 1 2.942 0v3.854a1.471 1.471 0 0 1-1.47 1.471z" class="cls-1" transform="translate(-469.355 -264.774)"/>
            </g>
        </g>
    </g>
    <g id="Group_612" transform="translate(0 30.905)">
        <path id="Path_1594" d="M407.558 402.455v-5.992l-2.332 4.465h-.957l-2.334-4.465v5.992h-1.759V393.4h1.886l2.678 5.15 2.706-5.15h1.875v9.052z" class="cls-1" transform="translate(-400.176 -393.402)"/>
        <path id="Path_1595" d="M447.88 412.3a3.357 3.357 0 0 0 .421.1 2.276 2.276 0 0 0 .344.032.725.725 0 0 0 .306-.068.657.657 0 0 0 .255-.223 2.2 2.2 0 0 0 .229-.44q.114-.281.242-.7l-2.638-6.681h1.761l1.81 5.2 1.607-5.2h1.607l-2.8 8.007a2.39 2.39 0 0 1-.829 1.15 2.331 2.331 0 0 1-1.453.446 2.807 2.807 0 0 1-.414-.032 2.642 2.642 0 0 1-.44-.108z" class="cls-1" transform="translate(-436.877 -401.947)"/>
        <path id="Path_1596" d="M490.524 401.865v.586h-6.03V393.4h5.916v.586h-5.265v3.557h4.6v.561h-4.6v3.761z" class="cls-1" transform="translate(-466.211 -393.4)"/>
        <path id="Path_1597" d="M519.226 410.9a4.244 4.244 0 0 1-1.466-.256 3.379 3.379 0 0 1-1.224-.765l.319-.433a3.728 3.728 0 0 0 1.11.714 3.366 3.366 0 0 0 1.262.229 2.428 2.428 0 0 0 1.4-.363 1.162 1.162 0 0 0 .529-1.015.947.947 0 0 0-.135-.517 1.078 1.078 0 0 0-.4-.357 3.306 3.306 0 0 0-.663-.262q-.4-.114-.918-.242-.561-.127-.976-.255a2.634 2.634 0 0 1-.682-.306 1.181 1.181 0 0 1-.4-.434 1.39 1.39 0 0 1-.135-.65 1.866 1.866 0 0 1 .192-.867 1.717 1.717 0 0 1 .529-.612 2.442 2.442 0 0 1 .778-.363 3.526 3.526 0 0 1 .937-.121 3.418 3.418 0 0 1 1.377.261 2.421 2.421 0 0 1 .931.669l-.357.344a2.018 2.018 0 0 0-.86-.574 3.292 3.292 0 0 0-1.128-.192 3.024 3.024 0 0 0-.695.077 1.671 1.671 0 0 0-.567.242 1.19 1.19 0 0 0-.383.427 1.294 1.294 0 0 0-.14.618.993.993 0 0 0 .1.474.81.81 0 0 0 .306.306 2.236 2.236 0 0 0 .541.223q.331.1.79.211.625.153 1.109.294a3.192 3.192 0 0 1 .812.344 1.507 1.507 0 0 1 .5.484 1.34 1.34 0 0 1 .173.714 1.691 1.691 0 0 1-.695 1.421 2.986 2.986 0 0 1-1.871.532z" class="cls-1" transform="translate(-491.305 -401.725)"/>
        <path id="Path_1598" d="M548.081 402.685c-.035.017-.092.049-.173.1a1.775 1.775 0 0 1-.306.135 3.764 3.764 0 0 1-.415.114 2.3 2.3 0 0 1-.5.051 1.624 1.624 0 0 1-.5-.076 1.214 1.214 0 0 1-.415-.23 1.082 1.082 0 0 1-.28-.369 1.172 1.172 0 0 1-.1-.51v-5h-.931v-.523h.931V394.1h.637v2.27h1.543v.523h-1.543v4.845a.64.64 0 0 0 .255.555.955.955 0 0 0 .574.185 1.6 1.6 0 0 0 .682-.135c.192-.089.308-.147.35-.172z" class="cls-1" transform="translate(-513.173 -393.952)"/>
        <path id="Path_1599" d="M565.988 410.895a2.274 2.274 0 0 1-1.549-.593 1.917 1.917 0 0 1-.465-.65 1.986 1.986 0 0 1-.166-.812 1.573 1.573 0 0 1 .2-.79 1.958 1.958 0 0 1 .568-.618 2.823 2.823 0 0 1 .873-.406 4.067 4.067 0 0 1 1.122-.147 6.259 6.259 0 0 1 1.078.1 5.372 5.372 0 0 1 .976.262v-.65a2.065 2.065 0 0 0-.536-1.5 1.924 1.924 0 0 0-1.453-.555 2.914 2.914 0 0 0-1.026.2 5.252 5.252 0 0 0-1.1.587l-.242-.434a4.35 4.35 0 0 1 2.422-.867 2.539 2.539 0 0 1 1.887.694 2.609 2.609 0 0 1 .689 1.919v3.238q0 .319.281.319v.574c-.045.008-.09.014-.135.019s-.088.006-.121.006a.521.521 0 0 1-.406-.172.727.727 0 0 1-.178-.415v-.548a2.977 2.977 0 0 1-1.173.918 3.746 3.746 0 0 1-1.546.321zm.127-.511a3.253 3.253 0 0 0 1.358-.28 2.322 2.322 0 0 0 .947-.74.855.855 0 0 0 .2-.51v-1.173a5.115 5.115 0 0 0-.956-.271 5.808 5.808 0 0 0-1.033-.089 3.508 3.508 0 0 0-.905.108 2.4 2.4 0 0 0-.7.3 1.384 1.384 0 0 0-.452.466 1.183 1.183 0 0 0-.159.609 1.55 1.55 0 0 0 .127.625 1.457 1.457 0 0 0 .357.5 1.689 1.689 0 0 0 .541.331 1.823 1.823 0 0 0 .673.122z" class="cls-1" transform="translate(-528.326 -401.716)"/>
        <path id="Path_1600" d="M598.23 402.685c-.034.017-.092.049-.172.1a1.8 1.8 0 0 1-.306.135 3.761 3.761 0 0 1-.415.114 2.279 2.279 0 0 1-.5.051 1.622 1.622 0 0 1-.5-.076 1.207 1.207 0 0 1-.414-.23 1.087 1.087 0 0 1-.281-.369 1.18 1.18 0 0 1-.1-.51v-5h-.931v-.523h.931V394.1h.637v2.27h1.542v.523h-1.542v4.845a.639.639 0 0 0 .255.555.954.954 0 0 0 .574.185 1.6 1.6 0 0 0 .683-.135c.191-.089.308-.147.35-.172z" class="cls-1" transform="translate(-552.448 -393.952)"/>
        <path id="Path_1601" d="M616.883 410.9a3.1 3.1 0 0 1-1.3-.274 3.214 3.214 0 0 1-1.038-.754 3.576 3.576 0 0 1-.937-2.442 3.514 3.514 0 0 1 .931-2.4 3.17 3.17 0 0 1 1.026-.733 3.215 3.215 0 0 1 2.582.006 3.249 3.249 0 0 1 1.032.74 3.386 3.386 0 0 1 .677 1.083 3.565 3.565 0 0 1 .242 1.307v.16a.35.35 0 0 1-.013.121h-5.814a2.949 2.949 0 0 0 .271 1.065 3.011 3.011 0 0 0 .58.847 2.6 2.6 0 0 0 .812.561 2.384 2.384 0 0 0 .982.2 2.431 2.431 0 0 0 .677-.1 2.765 2.765 0 0 0 .618-.261 2.24 2.24 0 0 0 .51-.4 1.889 1.889 0 0 0 .35-.516l.561.153a2.115 2.115 0 0 1-.415.656 2.784 2.784 0 0 1-.637.517 3.255 3.255 0 0 1-.8.338 3.3 3.3 0 0 1-.897.126zm2.6-3.7a3.016 3.016 0 0 0-.261-1.07 2.865 2.865 0 0 0-.573-.835 2.578 2.578 0 0 0-.812-.548 2.537 2.537 0 0 0-1.962 0 2.576 2.576 0 0 0-.812.548 2.646 2.646 0 0 0-.561.841 3.233 3.233 0 0 0-.249 1.065z" class="cls-1" transform="translate(-567.328 -401.726)"/>
    </g>
</svg>
