<svg xmlns="http://www.w3.org/2000/svg" width="24" height="24" viewBox="0 0 24 24">
    <defs>
        <style>
            .cls-2{fill:#fff}
        </style>
    </defs>
    <g id="whatsapp" transform="translate(0 .001)">
        <path id="Path_1546" fill="#e5e5e5" d="M.513 24a.511.511 0 0 1-.495-.645l1.567-5.7A11.94 11.94 0 0 1 20.5 3.488a11.8 11.8 0 0 1 3.5 8.417A11.942 11.942 0 0 1 12.048 23.8h-.005a12.018 12.018 0 0 1-5.53-1.352l-5.87 1.534a.518.518 0 0 1-.13.018zm0 0"/>
        <path id="Path_1547" d="M10.894 33.873l1.623-5.9a11.429 11.429 0 0 1 18.008-13.739 11.291 11.291 0 0 1 3.348 8.056 11.431 11.431 0 0 1-11.441 11.386 11.473 11.473 0 0 1-5.472-1.386zm6.346-3.644l.347.2a9.53 9.53 0 0 0 4.84 1.319 9.5 9.5 0 0 0 9.509-9.464 9.488 9.488 0 0 0-9.506-9.471 9.46 9.46 0 0 0-8.059 14.5l.226.358-.961 3.492zm0 0" class="cls-2" transform="translate(-10.384 -10.385)"/>
        <path id="Path_1548" fill="#04a777" d="M19.344 41.566l1.567-5.7a11.057 11.057 0 1 1 9.573 5.506 11.087 11.087 0 0 1-5.284-1.335zm0 0" transform="translate(-18.437 -18.475)"/>
        <g id="Group_573" transform="translate(.511 .51)">
            <path id="Path_1549" d="M10.894 33.873l1.623-5.9a11.429 11.429 0 0 1 18.008-13.739 11.291 11.291 0 0 1 3.348 8.056 11.431 11.431 0 0 1-11.441 11.386 11.473 11.473 0 0 1-5.472-1.386zm6.346-3.644l.347.2a9.53 9.53 0 0 0 4.84 1.319 9.5 9.5 0 0 0 9.509-9.464 9.488 9.488 0 0 0-9.506-9.471 9.46 9.46 0 0 0-8.059 14.5l.226.358-.961 3.492zm0 0" class="cls-2" transform="translate(-10.894 -10.895)"/>
            <path id="Path_1550" fill="#fff" fill-rule="evenodd" d="M135.413 142.112c-.215-.474-.442-.483-.646-.492-.167-.007-.359-.007-.55-.007a1.06 1.06 0 0 0-.766.356 3.178 3.178 0 0 0-1.005 2.373 5.51 5.51 0 0 0 1.173 2.943 11.745 11.745 0 0 0 4.905 4.3c2.426.948 2.919.76 3.446.712a2.9 2.9 0 0 0 1.938-1.353 2.357 2.357 0 0 0 .168-1.353c-.072-.118-.263-.19-.55-.332s-1.7-.831-1.962-.926-.455-.142-.646.143-.741.925-.909 1.115-.335.214-.622.072a7.867 7.867 0 0 1-2.309-1.412 8.587 8.587 0 0 1-1.6-1.971c-.167-.285 0-.425.126-.581a8.591 8.591 0 0 0 .718-.973.52.52 0 0 0-.024-.5c-.072-.144-.63-1.552-.885-2.114zm0 0" transform="translate(-126.748 -135.486)"/>
        </g>
    </g>
</svg>
