<svg xmlns="http://www.w3.org/2000/svg" width="27" height="19" viewBox="0 0 24 16">
    <defs>
        <style>
            .cls-1{fill:#010302}
        </style>
    </defs>
    <g id="private" transform="translate(-5 -35.927)">
        <g id="view" transform="translate(5 -56.908)">
            <g id="Group_541" transform="translate(0 92.835)">
                <g id="Group_540">
                    <path id="Path_1362" d="M23.847 100.347c-.214-.307-5.323-7.512-11.848-7.512S.366 100.04.152 100.346a.859.859 0 0 0 0 .977c.214.307 5.323 7.512 11.848 7.512s11.633-7.2 11.848-7.511a.858.858 0 0 0-.001-.977zM12 107.18c-4.806 0-8.969-4.782-10.2-6.345C3.03 99.27 7.184 94.49 12 94.49s8.968 4.781 10.2 6.345c-1.23 1.565-5.384 6.345-10.2 6.345z" class="cls-1" transform="translate(0 -92.835)"/>
                </g>
            </g>
            <g id="Group_543" transform="translate(7.055 95.89)">
                <g id="Group_542">
                    <path id="Path_1363" d="M159.667 154.725a4.945 4.945 0 1 0 4.945 4.945 4.951 4.951 0 0 0-4.945-4.945zm0 8.242a3.3 3.3 0 1 1 3.3-3.3 3.3 3.3 0 0 1-3.3 3.3z" class="cls-1" transform="translate(-154.722 -154.725)"/>
                </g>
            </g>
        </g>
    </g>
</svg>
