<svg xmlns="http://www.w3.org/2000/svg" width="32" height="32" viewBox="0 0 32 32">
    <path fill="#100f0f" d="M8914 14744a16 16 0 1 1 11.313-4.687A15.9 15.9 0 0 1 8914 14744zm-7.334-24a.132.132 0 0 0-.034.006h-.032a.591.591 0 0 0-.063.012h-.03a.714.714 0 0 0-.192.082l-.016.006a.1.1 0 0 0-.029.016.026.026 0 0 0-.007.008.026.026 0 0 1-.007.008.647.647 0 0 0-.179.21.055.055 0 0 0 0 .012v.012a.208.208 0 0 1-.011.032l-.008.018v.011a.492.492 0 0 0-.04.127.1.1 0 0 0 0 .03.1.1 0 0 1 0 .029.05.05 0 0 1 0 .011v.008a.063.063 0 0 0 0 .019V14734a.669.669 0 0 0 .536.651l6.664 1.332a.579.579 0 0 0 .134.015.667.667 0 0 0 .666-.666v-.666h3.334a.667.667 0 0 0 .666-.666v-4a.666.666 0 1 0-1.332 0v3.334H8914v-10.668a.666.666 0 0 0-.474-.641l-2.316-.7h5.458v3.334a.666.666 0 0 0 1.332 0v-4a.667.667 0 0 0-.666-.666zm9.336 6.668a.666.666 0 1 0 0 1.332h3.722l-.862.862a.67.67 0 0 0 0 .943.666.666 0 0 0 .944 0l2-2a.622.622 0 0 0 .145-.215.672.672 0 0 0-.145-.729l-2-2a.667.667 0 0 0-1.139.473.654.654 0 0 0 .194.467l.862.866z" transform="translate(-8898.001 -14712)"/>
</svg>
