<svg xmlns="http://www.w3.org/2000/svg" width="31.997" height="32.001" viewBox="0 0 31.997 32.001">
    <path fill="#100f0f" d="M8899 15931a16 16 0 1 1 11.312-4.687A15.894 15.894 0 0 1 8899 15931zm-3.906-16.3h-1.487a.526.526 0 0 0-.5.356l-2.087 6.261a.523.523 0 0 0 .5.688h14.957a.523.523 0 0 0 .5-.687l-2.087-6.261a.524.524 0 0 0-.5-.356h-1.483l-2.543 4.011a1.6 1.6 0 0 1-1.323.743h-.008a1.561 1.561 0 0 1-1.324-.7zm3.906-6.7a3.649 3.649 0 0 0-3.07 5.629l2.654 4.118a.524.524 0 0 0 .448.224.559.559 0 0 0 .451-.256l2.6-4.109A3.654 3.654 0 0 0 8899 15908zm0 5.217a1.565 1.565 0 1 1 1.563-1.562 1.567 1.567 0 0 1-1.563 1.562zm-.024-1.979a.5.5 0 1 0 .5.5.5.5 0 0 0-.498-.5z" transform="translate(-8883.001 -15899)"/>
</svg>
