<svg xmlns="http://www.w3.org/2000/svg" width="33" height="32" viewBox="0 0 33 32">
    <path fill="#100f0f" d="M16.5 32a16.656 16.656 0 0 1-11.67-4.687 15.66 15.66 0 0 1 0-22.627A16.656 16.656 0 0 1 16.5 0a16.645 16.645 0 0 1 11.668 4.687 15.66 15.66 0 0 1 0 22.627A16.645 16.645 0 0 1 16.5 32zM8.251 19a2 2 0 1 0 2.063 2 2.037 2.037 0 0 0-2.063-2zm4.124 1v2h14.439v-2zm-4.124-6a2 2 0 1 0 2.063 2 2.036 2.036 0 0 0-2.063-2zm4.124 1v2h14.439v-2zM8.251 9a2 2 0 1 0 2.063 2 2.036 2.036 0 0 0-2.063-2zm4.124 1v2h14.439v-2z"/>
</svg>
