<svg xmlns="http://www.w3.org/2000/svg" width="26.773" height="18.773" viewBox="0 0 26.773 18.773">
    <g>
        <g>
            <path fill="none" stroke="#010302" stroke-linecap="round" stroke-width="2px" d="M703 484.7l24-16" transform="translate(-3.613 -34.541) translate(5 -56.908) translate(-703 -375.861)"/>
            <path fill="#010302" d="M19352.152 16373.324a.854.854 0 0 1 0-.978c.213-.307 5.324-7.514 11.85-7.514s11.633 7.207 11.846 7.514a.854.854 0 0 1 0 .978c-.213.306-5.324 7.513-11.846 7.513s-11.637-7.207-11.85-7.513zm1.648-.491c1.23 1.565 5.393 6.346 10.2 6.346s8.967-4.78 10.2-6.341c-1.23-1.566-5.393-6.347-10.2-6.347s-8.969 4.78-10.2 6.342zm5.256 0a4.945 4.945 0 1 1 4.945 4.945 4.952 4.952 0 0 1-4.944-4.945zm1.648 0a3.3 3.3 0 1 0 3.3-3.3 3.3 3.3 0 0 0-3.299 3.3z" transform="translate(-3.613 -34.541) translate(5 -56.908) translate(-19352 -16272)"/>
        </g>
    </g>
</svg>
